<svg width="1274" height="1274" viewBox="0 0 1274 1274" fill="none" xmlns="http://www.w3.org/2000/svg">
<path fill-rule="evenodd" clip-rule="evenodd" d="M1274 59C1274 26.4152 1247.58 0 1215 0H59C26.4152 0 0 26.4152 0 59V1215C0 1247.58 26.4152 1274 59 1274H1215C1247.58 1274 1274 1247.58 1274 1215V59ZM630.573 96C630.573 87.1634 623.41 80 614.573 80C605.736 80 598.573 87.1635 598.573 96V591.081C598.573 597.541 606.306 605.197 612.763 605.018C613.198 605.006 613.635 605 614.073 605C614.935 605 615.791 605.023 616.641 605.07C622.901 605.411 630.573 598.024 630.573 591.755V96ZM554.326 635.08C560.638 635.116 567.964 642.747 567.636 649.051C567.594 649.862 567.573 650.678 567.573 651.5C567.573 652.278 567.592 653.051 567.63 653.82C567.933 659.988 560.995 667.118 554.82 667.083L87.9101 664.461C79.0737 664.411 71.9506 657.208 72.0003 648.371C72.0499 639.535 79.2535 632.412 88.0899 632.461L554.326 635.08ZM598.573 711.083C598.573 704.798 605.846 697.701 612.126 697.96C612.536 697.977 612.948 697.988 613.361 697.995C613.598 697.998 613.835 698 614.073 698C614.803 698 615.53 697.983 616.252 697.95C622.601 697.657 630.573 705.401 630.573 711.757V1178C630.573 1186.84 623.41 1194 614.573 1194C605.736 1194 598.573 1186.84 598.573 1178V711.083ZM674.82 667.757C668.324 667.721 660.332 659.561 660.547 653.068C660.564 652.547 660.573 652.025 660.573 651.5C660.573 651.177 660.57 650.855 660.563 650.534C660.558 650.296 660.552 650.057 660.543 649.82C660.317 643.451 667.953 635.718 674.326 635.754L1185.04 638.623C1193.88 638.673 1201 645.876 1200.95 654.713C1200.9 663.549 1193.7 670.672 1184.86 670.622L674.82 667.757Z" fill="black"/>
<path d="M166 1099C163.239 1099 161 1096.76 161 1094V1087.33C161 1084.57 163.239 1082.33 166 1082.33H456C458.761 1082.33 461 1084.57 461 1087.33V1094C461 1096.76 458.761 1099 456 1099H166ZM202.73 1065.67C195.976 1065.67 190.34 1063.09 185.824 1057.95C181.308 1052.81 179.045 1046.4 179.035 1038.73V875.917C179.035 868.25 181.298 861.844 185.824 856.7C190.35 851.556 195.98 848.989 202.716 849H419.284C426.029 849 431.66 851.567 436.176 856.7C440.692 861.833 442.955 868.239 442.965 875.917V1038.75C442.965 1046.42 440.702 1052.82 436.176 1057.95C431.65 1063.08 426.015 1065.66 419.27 1065.67H202.73ZM202.73 1049H419.284C421.533 1049 423.6 1047.93 425.487 1045.78C427.373 1043.64 428.312 1041.29 428.302 1038.73V875.917C428.302 873.361 427.364 871.011 425.487 868.867C423.6 866.722 421.528 865.65 419.27 865.65H202.73C200.472 865.65 198.4 866.722 196.513 868.867C194.636 871 193.698 873.35 193.698 875.917V1038.75C193.698 1041.31 194.636 1043.65 196.513 1045.78C198.39 1047.92 200.457 1048.99 202.716 1049" fill="#8DFFA6"/>
<path d="M311 262.93C251.469 262.93 209.438 301.205 209.438 348.312C209.438 369.744 219.313 384.2 231.703 397.986C234.391 400.986 237.125 403.874 239.938 406.847L241.437 408.409C244.719 411.898 248.109 415.498 251.281 419.209C257.594 426.619 263.516 434.949 266.828 444.8C267.639 447.434 267.265 450.248 265.784 452.639C264.304 455.03 261.835 456.809 258.905 457.596C255.975 458.384 252.816 458.116 250.104 456.851C247.392 455.587 245.342 453.425 244.391 450.828C242.234 444.409 238.188 438.409 232.625 431.893C229.689 428.503 226.657 425.181 223.531 421.93L222.094 420.395C219.281 417.437 216.313 414.312 213.422 411.088C199.594 395.712 186 376.665 186 348.298C186 288.926 239.359 242 311 242C382.641 242 436 288.912 436 348.312C436 376.665 422.406 395.712 408.578 411.102C405.688 414.312 402.719 417.437 399.906 420.409L398.469 421.93C395.188 425.391 392.141 428.642 389.375 431.893C383.813 438.409 379.766 444.423 377.609 450.828C376.612 453.376 374.552 455.482 371.86 456.707C369.167 457.932 366.048 458.183 363.154 457.406C360.26 456.629 357.813 454.884 356.323 452.536C354.833 450.188 354.415 447.417 355.156 444.8C358.484 434.949 364.406 426.619 370.734 419.209C373.891 415.498 377.281 411.898 380.578 408.409L382.062 406.847C384.875 403.874 387.609 400.986 390.297 398C402.688 384.186 412.562 369.744 412.562 348.312C412.562 301.205 370.531 262.93 311 262.93ZM260.219 479.209H361.781C364.889 479.209 367.87 480.312 370.068 482.274C372.265 484.237 373.5 486.899 373.5 489.674C373.5 492.45 372.265 495.112 370.068 497.074C367.87 499.037 364.889 500.14 361.781 500.14H260.219C257.111 500.14 254.13 499.037 251.932 497.074C249.735 495.112 248.5 492.45 248.5 489.674C248.5 486.899 249.735 484.237 251.932 482.274C254.13 480.312 257.111 479.209 260.219 479.209ZM271.938 531.535C271.938 528.759 273.172 526.098 275.37 524.135C277.568 522.172 280.548 521.07 283.656 521.07H338.344C341.452 521.07 344.432 522.172 346.63 524.135C348.828 526.098 350.062 528.759 350.062 531.535C350.062 534.31 348.828 536.972 346.63 538.935C344.432 540.897 341.452 542 338.344 542H283.656C280.548 542 277.568 540.897 275.37 538.935C273.172 536.972 271.938 534.31 271.938 531.535Z" fill="#8DFFA6"/>
<path fill-rule="evenodd" clip-rule="evenodd" d="M921.5 823C838.379 823 771 890.379 771 973.5C771 1056.62 838.379 1124 921.5 1124C1004.62 1124 1072 1056.62 1072 973.5C1072 890.379 1004.62 823 921.5 823ZM913.975 843.535C913.975 840.666 911.559 838.377 908.702 838.645C839.897 845.1 786.05 903.006 786.05 973.5C786.05 1006.29 797.709 1036.37 817.105 1059.8C818.935 1062.01 822.259 1062.1 824.288 1060.07L912.511 971.849C913.448 970.911 913.975 969.64 913.975 968.314V843.535ZM913.975 1103.47C913.975 1106.34 911.566 1108.62 908.71 1108.36C881.701 1105.83 856.076 1095.21 835.19 1077.9C832.982 1076.07 832.897 1072.75 834.925 1070.72L905.439 1000.2C908.589 997.052 913.975 999.283 913.975 1003.74V1103.47ZM934.297 838.644C931.441 838.377 929.025 840.666 929.025 843.535V968.313C929.025 969.64 929.552 970.911 930.49 971.849L1018.72 1060.07C1020.75 1062.1 1024.07 1062.01 1025.9 1059.8C1045.98 1035.59 1057 1005.06 1056.95 973.5C1056.95 903.006 1003.1 845.093 934.297 838.644ZM1007.81 1077.9C1010.02 1076.07 1010.1 1072.75 1008.08 1070.72L937.561 1000.2C934.411 997.052 929.025 999.283 929.025 1003.74V1103.47C929.025 1106.34 931.434 1108.62 934.29 1108.36C961.299 1105.83 986.924 1095.21 1007.81 1077.9Z" fill="#8DFFA6"/>
<path d="M997.715 242C960.468 242 937.092 271.42 927.303 287.047C925.032 290.673 918.968 290.673 916.697 287.047C906.908 271.42 883.532 242 846.285 242C805.069 242 772.43 279.619 772.008 324.508C771.149 417.687 839.762 483.951 914.969 539.638C917.043 541.177 919.492 542 922 542C924.508 542 926.958 541.177 929.031 539.638C1004.23 483.951 1072.84 417.687 1071.99 324.508C1071.57 279.619 1038.93 242 997.715 242Z" stroke="#8DFFA6" stroke-width="32" stroke-linecap="round" stroke-linejoin="round"/>
</svg>
